<svg id="Layer_1" data-name="Layer 1" xmlns="http://www.w3.org/2000/svg" xmlns:xlink="http://www.w3.org/1999/xlink" viewBox="0 0 322.42 319.03"><defs><style>.cls-1{fill:none;}.cls-2{fill:#227139;}.cls-3{fill:#f9fcfa;}.cls-4{fill:#231f20;}.cls-5{fill:#c7c4c5;}.cls-6{clip-path:url(#clip-path);}.cls-7{fill:#f37421;}.cls-8{fill:#f37521;}.cls-9{fill:#f27521;}.cls-10{fill:#f27621;}.cls-11{fill:#f27721;}.cls-12{fill:#f17721;}.cls-13{fill:#f17821;}.cls-14{fill:#f17922;}.cls-15{fill:#f07922;}.cls-16{fill:#f07a22;}.cls-17{fill:#f07b22;}.cls-18{fill:#ef7c22;}.cls-19{fill:#ef7d22;}.cls-20{fill:#ef7e22;}.cls-21{fill:#ee7f22;}.cls-22{fill:#ee8022;}.cls-23{fill:#ee8122;}.cls-24{fill:#ed8222;}.cls-25{fill:#ed8322;}.cls-26{fill:#ed8323;}.cls-27{fill:#ed8423;}.cls-28{fill:#ed8523;}.cls-29{fill:#ec8523;}.cls-30{fill:#ec8623;}.cls-31{fill:#ec8723;}.cls-32{fill:#eb8823;}.cls-33{fill:#eb8923;}.cls-34{fill:#eb8a23;}.cls-35{fill:#eb8b23;}.cls-36{fill:#ea8c23;}.cls-37{fill:#ea8d23;}.cls-38{fill:#ea8e23;}.cls-39{fill:#e98e23;}.cls-40{fill:#e98f23;}.cls-41{fill:#e99023;}.cls-42{fill:#e99123;}.cls-43{fill:#e89224;}.cls-44{fill:#e89324;}.cls-45{fill:#e89424;}.cls-46{fill:#e79524;}.cls-47{fill:#e79624;}.cls-48{fill:#e79724;}.cls-49{fill:#e79824;}.cls-50{fill:#e69924;}.cls-51{fill:#e69a24;}.cls-52{fill:#e69b24;}.cls-53{fill:#e69c24;}.cls-54{fill:#e59c24;}.cls-55{fill:#e59d24;}.cls-56{fill:#e59e24;}.cls-57{fill:#e59f24;}.cls-58{fill:#e5a024;}.cls-59{fill:#e4a124;}.cls-60{fill:#e4a224;}.cls-61{fill:#e4a324;}.cls-62{fill:#e4a424;}.cls-63{fill:#e4a524;}.cls-64{fill:#e4a624;}.cls-65{fill:#e4a724;}.cls-66{fill:#e4a824;}.cls-67{fill:#e4a924;}.cls-68{fill:#e4aa24;}.cls-69{fill:#e4ab23;}.cls-70{fill:#e4ac23;}.cls-71{fill:#e4ad23;}.cls-72{fill:#e4ae23;}.cls-73{fill:#e4af23;}.cls-74{fill:#e4b023;}.cls-75{fill:#e4b123;}.cls-76{fill:#e4b223;}.cls-77{fill:#e4b323;}.cls-78{fill:#e4b423;}.cls-79{fill:#e4b523;}.cls-80{fill:#e4b622;}.cls-81{fill:#e4b722;}.cls-82{fill:#e4b822;}.cls-83{fill:#e4b922;}.cls-84{fill:#e4ba22;}.cls-85{fill:#e4bb22;}.cls-86{fill:#e4bc22;}.cls-87{fill:#e4bd22;}.cls-88{fill:#e4be21;}.cls-89{fill:#e4bf21;}.cls-90{fill:#e4c021;}.cls-91{fill:#e4c121;}.cls-92{fill:#e4c221;}.cls-93{fill:#e4c321;}.cls-94{fill:#e4c421;}.cls-95{fill:#e4c520;}.cls-96{fill:#e3c421;}.cls-97{fill:#e3c321;}.cls-98{fill:#e2c221;}.cls-99{fill:#e2c121;}.cls-100{fill:#e1c022;}.cls-101{fill:#e1bf22;}.cls-102{fill:#e0be22;}.cls-103{fill:#e0bd22;}.cls-104{fill:#dfbd23;}.cls-105{fill:#dfbc23;}.cls-106{fill:#debb23;}.cls-107{fill:#deba23;}.cls-108{fill:#ddb923;}.cls-109{fill:#ddb823;}.cls-110{fill:#ddb724;}.cls-111{fill:#dcb624;}.cls-112{fill:#dbb524;}.cls-113{fill:#dbb424;}.cls-114{fill:#dbb324;}.cls-115{fill:#dab225;}.cls-116{fill:#dab125;}.cls-117{fill:#d9b025;}.cls-118{fill:#d9af25;}.cls-119{fill:#d8ae25;}.cls-120{fill:#d8ad25;}.cls-121{fill:#d8ac25;}.cls-122{fill:#d7ac26;}.cls-123{fill:#d7ab26;}.cls-124{fill:#d6aa26;}.cls-125{fill:#d6a926;}.cls-126{fill:#d6a826;}.cls-127{fill:#d5a726;}.cls-128{fill:#d5a626;}.cls-129{fill:#d4a527;}.cls-130{fill:#d4a427;}.cls-131{fill:#d4a327;}.cls-132{fill:#d3a327;}.cls-133{fill:#d3a227;}.cls-134{fill:#d2a127;}.cls-135{fill:#d2a027;}.cls-136{fill:#d29f27;}.cls-137{fill:#d19f27;}.cls-138{fill:#d19e27;}.cls-139{fill:#d19d27;}.cls-140{fill:#d09c27;}.cls-141{fill:#d09c28;}.cls-142{fill:#d09b28;}.cls-143{fill:#cf9a28;}.cls-144{fill:#cf9928;}.cls-145{fill:#ce9828;}.cls-146{fill:#ce9728;}.cls-147{fill:#ce9628;}.cls-148{fill:#cd9528;}.cls-149{fill:#cd9428;}.cls-150{fill:#cd9328;}.cls-151{fill:#cc9328;}.cls-152{fill:#cc9228;}.cls-153{fill:#cc9128;}.cls-154{fill:#cb9028;}.cls-155{fill:#cb8f28;}.cls-156{fill:#ca8e28;}.cls-157{fill:#ca8d28;}.cls-158{fill:#ca8d29;}.cls-159{fill:#c98c29;}.cls-160{fill:#c98b29;}.cls-161{fill:#c98a29;}.cls-162{fill:#c88a29;}.cls-163{fill:#c88929;}.cls-164{fill:#c88829;}.cls-165{fill:#c78729;}.cls-166{fill:#c78629;}.cls-167{fill:#c78529;}.cls-168{fill:#c68529;}.cls-169{fill:#c68429;}.cls-170{fill:#c68329;}.cls-171{fill:#c58329;}.cls-172{fill:#c58229;}.cls-173{fill:#c58129;}.cls-174{fill:#c48029;}.cls-175{fill:#c47f29;}.cls-176{fill:#c47e29;}.cls-177{fill:#c37d29;}.cls-178{fill:#c37c29;}.cls-179{fill:#c27b29;}.cls-180{fill:#c27a29;}.cls-181{fill:#c27929;}.cls-182{fill:#c17829;}.cls-183{fill:#c17729;}.cls-184{fill:#c07629;}.cls-185{fill:#c07529;}.cls-186{fill:#c07429;}.cls-187{fill:#bf7429;}.cls-188{fill:#bf7329;}.cls-189{fill:#bf7229;}.cls-190{fill:#be7229;}.cls-191{fill:#be7129;}.cls-192{fill:#be7029;}.cls-193{fill:#60ab4f;}.cls-194{fill:#e56aa4;}</style><clipPath id="clip-path"><path class="cls-1" d="M162.53,173.41s-9.24-14.84-3.18-27.7S161.77,128,161.77,128s14.08,12.56,11.5,26.18S162.53,173.41,162.53,173.41Z"/></clipPath></defs><ellipse class="cls-2" cx="161.21" cy="159.52" rx="129.36" ry="129.02"/><ellipse class="cls-3" cx="161.21" cy="159.52" rx="121.53" ry="121.21"/><path class="cls-4" d="M162.49,190.94l-.48-.85c-12.89-23-66.78-16.66-67.32-16.59l-.87.1L107.29,91l.48-.08c34.13-5.31,51.22,12.8,54.49,16.74,6.77-9.87,18.53-15.9,34.07-17.45a87.33,87.33,0,0,1,22.22.72l.47.08.06.47c0,.26,3.77,26.59,12.69,82.63l.14.85-.86-.09c-50.67-5.54-67.78,15.06-68,15.27Zm-50.74-19.65c3.7,0,7.76.13,11.93.47,20,1.66,33.16,7.35,39,16.9,1.53-1.61,6-5.7,14.54-9.37,9.71-4.17,26.78-8.53,53.1-5.78-8.18-51.4-12-77.56-12.49-81.33-4.48-.73-40.27-5.74-55,17l-.52.81-.57-.79c-.16-.23-16.45-22.53-53.32-17l-13,79.9C97.62,171.86,103.87,171.29,111.75,171.29Z"/><path class="cls-5" d="M162.94,185.18s15.75-19.57,63.85-14.31c-8.41-52.83-12.15-75.95-12.15-75.95s-36.93-4.72-51.91,18.41c0,0-15.63-23.93-51.11-18.41L98.35,169.67S146.44,164.88,162.94,185.18Z"/><path class="cls-4" d="M159.36,195.53c-14-19.23-61.56-14.86-62-14.81l-.06-.66c.48,0,48.44-4.45,62.63,15.08Z"/><path class="cls-4" d="M166.18,198.7l-6.94-.22-.09-.13c-14-19.22-58.77-14.79-59.22-14.74l-.07-.66c.46,0,45.42-4.5,59.72,14.88l6.32.21c15.81-16.52,59.65-14.2,60.09-14.17l0,.65c-.44,0-44.17-2.33-59.68,14.07Z"/><path class="cls-4" d="M159.88,192.5l-.1-.14c-14-19.23-63.79-14-64.29-14l-.07-.66c.51,0,50.46-5.27,64.79,14.1l6.46-.27c16.64-16.73,63.31-12.95,63.78-12.91l-.06.66c-.47,0-47-3.82-63.34,12.8l-.09.09Z"/><path class="cls-4" d="M165.84,202.47l-6.6-.18-.09-.13c-14-19.23-56.18-15.07-56.61-15l-.07-.65c.43,0,42.82-4.22,57.11,15.16l6,.17c16-16.79,57.4-14.44,57.82-14.42l0,.66c-.42,0-41.69-2.37-57.41,14.32Z"/><path class="cls-4" d="M166.24,195.88l-6.84-.21,0-.66,6.56.2C182.34,179.54,228.13,181,228.6,181l0,.65c-.46,0-46.16-1.43-62.23,14.15Z"/><g class="cls-6"><polygon class="cls-7" points="175.85 136.12 161.77 128 175.85 128 175.85 136.12"/><polygon class="cls-7" points="175.85 136.48 161.15 128 161.77 128 175.85 136.12 175.85 136.48"/><polygon class="cls-7" points="175.85 136.84 160.52 128 161.15 128 175.85 136.48 175.85 136.84"/><polygon class="cls-7" points="175.85 137.2 160.16 128.15 160.25 128 160.52 128 175.85 136.84 175.85 137.2"/><polygon class="cls-7" points="175.85 137.56 160.01 128.42 160.16 128.15 175.85 137.2 175.85 137.56"/><polygon class="cls-8" points="175.85 137.92 159.85 128.69 160.01 128.42 175.85 137.56 175.85 137.92"/><polygon class="cls-8" points="175.85 138.28 159.69 128.96 159.85 128.69 175.85 137.92 175.85 138.28"/><polygon class="cls-9" points="175.85 138.64 159.54 129.23 159.69 128.96 175.85 138.28 175.85 138.64"/><polygon class="cls-10" points="175.85 139 159.38 129.5 159.54 129.23 175.85 138.64 175.85 139"/><polygon class="cls-10" points="175.85 139.36 159.23 129.77 159.38 129.5 175.85 139 175.85 139.36"/><polygon class="cls-11" points="175.85 139.72 159.07 130.04 159.23 129.77 175.85 139.36 175.85 139.72"/><polygon class="cls-12" points="175.85 140.08 158.91 130.31 159.07 130.04 175.85 139.72 175.85 140.08"/><polygon class="cls-13" points="175.85 140.44 158.76 130.58 158.91 130.31 175.85 140.08 175.85 140.44"/><polygon class="cls-13" points="175.85 140.8 158.6 130.85 158.76 130.58 175.85 140.44 175.85 140.8"/><polygon class="cls-14" points="175.85 141.16 158.45 131.12 158.6 130.85 175.85 140.8 175.85 141.16"/><polygon class="cls-15" points="175.85 141.52 158.29 131.39 158.45 131.12 175.85 141.16 175.85 141.52"/><polygon class="cls-16" points="175.85 141.88 158.14 131.66 158.29 131.39 175.85 141.52 175.85 141.88"/><polygon class="cls-16" points="175.85 142.24 157.98 131.93 158.14 131.66 175.85 141.88 175.85 142.24"/><polygon class="cls-17" points="175.85 142.6 157.82 132.2 157.98 131.93 175.85 142.24 175.85 142.6"/><polygon class="cls-17" points="175.85 142.96 157.67 132.47 157.82 132.2 175.85 142.6 175.85 142.96"/><polygon class="cls-18" points="175.85 143.32 157.51 132.74 157.67 132.47 175.85 142.96 175.85 143.32"/><polygon class="cls-18" points="175.85 143.68 157.36 133.01 157.51 132.74 175.85 143.32 175.85 143.68"/><polygon class="cls-19" points="175.85 144.04 157.2 133.28 157.36 133.01 175.85 143.68 175.85 144.04"/><polygon class="cls-20" points="175.85 144.4 157.04 133.55 157.2 133.28 175.85 144.04 175.85 144.4"/><polygon class="cls-20" points="175.85 144.76 156.89 133.82 157.04 133.55 175.85 144.4 175.85 144.76"/><polygon class="cls-21" points="175.85 145.12 156.73 134.09 156.89 133.82 175.85 144.76 175.85 145.12"/><polygon class="cls-21" points="175.85 145.48 156.58 134.36 156.73 134.09 175.85 145.12 175.85 145.48"/><polygon class="cls-22" points="175.85 145.84 156.42 134.63 156.58 134.36 175.85 145.48 175.85 145.84"/><polygon class="cls-23" points="175.85 146.2 156.27 134.9 156.42 134.63 175.85 145.84 175.85 146.2"/><polygon class="cls-23" points="175.85 146.56 156.11 135.17 156.27 134.9 175.85 146.2 175.85 146.56"/><polygon class="cls-24" points="175.85 146.92 155.96 135.44 156.11 135.17 175.85 146.56 175.85 146.92"/><polygon class="cls-25" points="175.85 147.28 155.8 135.71 155.96 135.44 175.85 146.92 175.85 147.28"/><polygon class="cls-26" points="175.85 147.64 155.64 135.98 155.8 135.71 175.85 147.28 175.85 147.64"/><polygon class="cls-27" points="175.85 148 155.49 136.25 155.64 135.98 175.85 147.64 175.85 148"/><polygon class="cls-28" points="175.85 148.36 155.33 136.51 155.49 136.25 175.85 148 175.85 148.36"/><polygon class="cls-29" points="175.85 148.72 155.18 136.78 155.33 136.51 175.85 148.36 175.85 148.72"/><polygon class="cls-30" points="175.85 149.08 155.02 137.06 155.18 136.78 175.85 148.72 175.85 149.08"/><polygon class="cls-31" points="175.85 149.44 154.86 137.32 155.02 137.06 175.85 149.08 175.85 149.44"/><polygon class="cls-31" points="175.85 149.8 154.71 137.59 154.86 137.32 175.85 149.44 175.85 149.8"/><polygon class="cls-32" points="175.85 150.16 154.55 137.87 154.71 137.59 175.85 149.8 175.85 150.16"/><polygon class="cls-33" points="175.85 150.52 154.4 138.13 154.55 137.87 175.85 150.16 175.85 150.52"/><polygon class="cls-33" points="175.85 150.88 154.24 138.41 154.4 138.13 175.85 150.52 175.85 150.88"/><polygon class="cls-34" points="175.85 151.24 154.08 138.67 154.24 138.41 175.85 150.88 175.85 151.24"/><polygon class="cls-35" points="175.85 151.6 153.93 138.94 154.08 138.67 175.85 151.24 175.85 151.6"/><polygon class="cls-36" points="175.85 151.96 153.77 139.21 153.93 138.94 175.85 151.6 175.85 151.96"/><polygon class="cls-36" points="175.85 152.32 153.62 139.48 153.77 139.21 175.85 151.96 175.85 152.32"/><polygon class="cls-37" points="175.85 152.68 153.46 139.75 153.62 139.48 175.85 152.32 175.85 152.68"/><polygon class="cls-38" points="175.85 153.04 153.31 140.02 153.46 139.75 175.85 152.68 175.85 153.04"/><polygon class="cls-39" points="175.85 153.4 153.29 140.38 153.29 140.05 153.31 140.02 175.85 153.04 175.85 153.4"/><polygon class="cls-40" points="175.85 153.76 153.29 140.74 153.29 140.38 175.85 153.4 175.85 153.76"/><polygon class="cls-41" points="175.85 154.12 153.29 141.1 153.29 140.74 175.85 153.76 175.85 154.12"/><polygon class="cls-42" points="175.85 154.48 153.29 141.46 153.29 141.1 175.85 154.12 175.85 154.48"/><polygon class="cls-42" points="175.85 154.84 153.29 141.81 153.29 141.46 175.85 154.48 175.85 154.84"/><polygon class="cls-43" points="175.85 155.2 153.29 142.18 153.29 141.81 175.85 154.84 175.85 155.2"/><polygon class="cls-44" points="175.85 155.56 153.29 142.54 153.29 142.18 175.85 155.2 175.85 155.56"/><polygon class="cls-45" points="175.85 155.92 153.29 142.9 153.29 142.54 175.85 155.56 175.85 155.92"/><polygon class="cls-45" points="175.85 156.28 153.29 143.25 153.29 142.9 175.85 155.92 175.85 156.28"/><polygon class="cls-46" points="175.85 156.64 153.29 143.62 153.29 143.25 175.85 156.28 175.85 156.64"/><polygon class="cls-47" points="175.85 157 153.29 143.97 153.29 143.62 175.85 156.64 175.85 157"/><polygon class="cls-48" points="175.85 157.36 153.29 144.34 153.29 143.97 175.85 157 175.85 157.36"/><polygon class="cls-49" points="175.85 157.72 153.29 144.69 153.29 144.34 175.85 157.36 175.85 157.72"/><polygon class="cls-49" points="175.85 158.08 153.29 145.05 153.29 144.69 175.85 157.72 175.85 158.08"/><polygon class="cls-50" points="175.85 158.44 153.29 145.41 153.29 145.05 175.85 158.08 175.85 158.44"/><polygon class="cls-51" points="175.85 158.79 153.29 145.77 153.29 145.41 175.85 158.44 175.85 158.79"/><polygon class="cls-52" points="175.85 159.16 153.29 146.13 153.29 145.77 175.85 158.79 175.85 159.16"/><polygon class="cls-53" points="175.85 159.51 153.29 146.49 153.29 146.13 175.85 159.16 175.85 159.51"/><polygon class="cls-54" points="175.85 159.88 153.29 146.85 153.29 146.49 175.85 159.51 175.85 159.88"/><polygon class="cls-55" points="175.85 160.24 153.29 147.21 153.29 146.85 175.85 159.88 175.85 160.24"/><polygon class="cls-56" points="175.85 160.59 153.29 147.57 153.29 147.21 175.85 160.24 175.85 160.59"/><polygon class="cls-57" points="175.85 160.96 153.29 147.93 153.29 147.57 175.85 160.59 175.85 160.96"/><polygon class="cls-57" points="175.85 161.2 153.29 148.18 153.29 147.93 175.85 160.96 175.85 161.2"/><polygon class="cls-58" points="175.85 161.45 153.29 148.43 153.29 148.18 175.85 161.2 175.85 161.45"/><polygon class="cls-58" points="175.85 161.53 175.77 161.65 153.29 148.68 153.29 148.43 175.85 161.45 175.85 161.53"/><polygon class="cls-59" points="175.77 161.65 175.67 161.84 153.29 148.92 153.29 148.68 175.77 161.65"/><polygon class="cls-60" points="175.67 161.84 175.56 162.02 153.29 149.17 153.29 148.92 175.67 161.84"/><polygon class="cls-60" points="175.56 162.02 175.45 162.21 153.29 149.41 153.29 149.17 175.56 162.02"/><polygon class="cls-61" points="175.45 162.21 175.34 162.39 153.29 149.66 153.29 149.41 175.45 162.21"/><polygon class="cls-62" points="175.34 162.39 175.24 162.58 153.29 149.91 153.29 149.66 175.34 162.39"/><polygon class="cls-62" points="175.24 162.58 175.13 162.76 153.29 150.16 153.29 149.91 175.24 162.58"/><polygon class="cls-63" points="175.13 162.76 175.02 162.95 153.29 150.4 153.29 150.16 175.13 162.76"/><polygon class="cls-64" points="175.02 162.95 174.92 163.13 153.29 150.65 153.29 150.4 175.02 162.95"/><polygon class="cls-64" points="174.92 163.13 174.81 163.32 153.29 150.9 153.29 150.65 174.92 163.13"/><polygon class="cls-65" points="174.81 163.32 174.7 163.51 153.29 151.14 153.29 150.9 174.81 163.32"/><polygon class="cls-66" points="174.7 163.51 174.6 163.69 153.29 151.39 153.29 151.14 174.7 163.51"/><polygon class="cls-66" points="174.6 163.69 174.49 163.88 153.29 151.64 153.29 151.39 174.6 163.69"/><polygon class="cls-67" points="174.49 163.88 174.38 164.06 153.29 151.88 153.29 151.64 174.49 163.88"/><polygon class="cls-68" points="174.38 164.06 174.28 164.25 153.29 152.13 153.29 151.88 174.38 164.06"/><polygon class="cls-68" points="174.28 164.25 174.17 164.43 153.29 152.38 153.29 152.13 174.28 164.25"/><polygon class="cls-69" points="174.17 164.43 174.06 164.62 153.29 152.63 153.29 152.38 174.17 164.43"/><polygon class="cls-70" points="174.06 164.62 173.95 164.8 153.29 152.87 153.29 152.63 174.06 164.62"/><polygon class="cls-71" points="173.95 164.8 173.85 164.99 153.29 153.12 153.29 152.87 173.95 164.8"/><polygon class="cls-71" points="173.85 164.99 173.74 165.17 153.29 153.37 153.29 153.12 173.85 164.99"/><polygon class="cls-72" points="173.74 165.17 173.63 165.36 153.29 153.61 153.29 153.37 173.74 165.17"/><polygon class="cls-73" points="173.63 165.36 173.53 165.54 153.29 153.86 153.29 153.61 173.63 165.36"/><polygon class="cls-73" points="173.53 165.54 173.42 165.73 153.29 154.11 153.29 153.86 173.53 165.54"/><polygon class="cls-74" points="173.42 165.73 173.31 165.91 153.29 154.35 153.29 154.11 173.42 165.73"/><polygon class="cls-75" points="173.31 165.91 173.21 166.1 153.29 154.6 153.29 154.35 173.31 165.91"/><polygon class="cls-75" points="173.21 166.1 173.1 166.28 153.29 154.85 153.29 154.6 173.21 166.1"/><polygon class="cls-76" points="173.1 166.28 172.99 166.47 153.29 155.1 153.29 154.85 173.1 166.28"/><polygon class="cls-77" points="172.99 166.47 172.88 166.66 153.29 155.34 153.29 155.1 172.99 166.47"/><polygon class="cls-77" points="172.88 166.66 172.78 166.84 153.29 155.59 153.29 155.34 172.88 166.66"/><polygon class="cls-78" points="172.78 166.84 172.67 167.03 153.29 155.84 153.29 155.59 172.78 166.84"/><polygon class="cls-79" points="172.67 167.03 172.56 167.21 153.29 156.09 153.29 155.84 172.67 167.03"/><polygon class="cls-79" points="172.56 167.21 172.46 167.4 153.29 156.33 153.29 156.09 172.56 167.21"/><polygon class="cls-80" points="172.46 167.4 172.35 167.58 153.29 156.58 153.29 156.33 172.46 167.4"/><polygon class="cls-81" points="172.35 167.58 172.24 167.77 153.29 156.83 153.29 156.58 172.35 167.58"/><polygon class="cls-81" points="172.24 167.77 172.14 167.95 153.29 157.07 153.29 156.83 172.24 167.77"/><polygon class="cls-82" points="172.14 167.95 172.03 168.14 153.29 157.32 153.29 157.07 172.14 167.95"/><polygon class="cls-83" points="172.03 168.14 171.92 168.32 153.29 157.57 153.29 157.32 172.03 168.14"/><polygon class="cls-83" points="171.92 168.32 171.81 168.51 153.29 157.81 153.29 157.57 171.92 168.32"/><polygon class="cls-84" points="171.81 168.51 171.71 168.69 153.29 158.06 153.29 157.81 171.81 168.51"/><polygon class="cls-85" points="171.71 168.69 171.6 168.88 153.29 158.31 153.29 158.06 171.71 168.69"/><polygon class="cls-85" points="171.6 168.88 171.5 169.06 153.29 158.56 153.29 158.31 171.6 168.88"/><polygon class="cls-86" points="171.5 169.06 171.39 169.25 153.29 158.8 153.29 158.56 171.5 169.06"/><polygon class="cls-87" points="171.39 169.25 171.28 169.43 153.29 159.05 153.29 158.8 171.39 169.25"/><polygon class="cls-87" points="171.28 169.43 171.17 169.62 153.29 159.3 153.29 159.05 171.28 169.43"/><polygon class="cls-88" points="171.17 169.62 171.07 169.8 153.29 159.54 153.29 159.3 171.17 169.62"/><polygon class="cls-89" points="171.07 169.8 170.96 169.99 153.29 159.79 153.29 159.54 171.07 169.8"/><polygon class="cls-89" points="170.96 169.99 170.85 170.17 153.29 160.04 153.29 159.79 170.96 169.99"/><polygon class="cls-90" points="170.85 170.17 170.75 170.36 153.29 160.28 153.29 160.04 170.85 170.17"/><polygon class="cls-91" points="170.75 170.36 170.64 170.54 153.29 160.53 153.29 160.28 170.75 170.36"/><polygon class="cls-91" points="170.64 170.54 170.53 170.73 153.29 160.78 153.29 160.53 170.64 170.54"/><polygon class="cls-92" points="170.53 170.73 170.43 170.92 153.29 161.02 153.29 160.78 170.53 170.73"/><polygon class="cls-93" points="170.43 170.92 170.32 171.1 153.29 161.27 153.29 161.02 170.43 170.92"/><polygon class="cls-93" points="170.32 171.1 170.21 171.29 153.29 161.52 153.29 161.27 170.32 171.1"/><polygon class="cls-94" points="170.21 171.29 170.1 171.47 153.29 161.76 153.29 161.52 170.21 171.29"/><polygon class="cls-95" points="170.1 171.47 170 171.66 153.29 162.01 153.29 161.76 170.1 171.47"/><polygon class="cls-95" points="170 171.66 169.97 171.7 153.29 162.06 153.29 162.01 170 171.66"/><polygon class="cls-96" points="169.97 171.7 169.95 171.74 153.29 162.12 153.29 162.06 169.97 171.7"/><polygon class="cls-97" points="169.95 171.74 169.93 171.77 153.29 162.17 153.29 162.12 169.95 171.74"/><polygon class="cls-98" points="169.93 171.77 169.91 171.81 153.29 162.22 153.29 162.17 169.93 171.77"/><polygon class="cls-99" points="169.91 171.81 169.88 171.85 153.29 162.28 153.29 162.22 169.91 171.81"/><polygon class="cls-100" points="169.88 171.85 169.86 171.89 153.29 162.33 153.29 162.28 169.88 171.85"/><polygon class="cls-101" points="169.86 171.89 169.84 171.93 153.29 162.38 153.29 162.33 169.86 171.89"/><polygon class="cls-102" points="169.84 171.93 169.82 171.97 153.29 162.43 153.29 162.38 169.84 171.93"/><polygon class="cls-103" points="169.82 171.97 169.79 172.01 153.29 162.48 153.29 162.43 169.82 171.97"/><polygon class="cls-104" points="169.79 172.01 169.77 172.05 153.29 162.54 153.29 162.48 169.79 172.01"/><polygon class="cls-105" points="169.77 172.05 169.75 172.09 153.29 162.59 153.29 162.54 169.77 172.05"/><polygon class="cls-106" points="169.75 172.09 169.72 172.13 153.29 162.64 153.29 162.59 169.75 172.09"/><polygon class="cls-107" points="169.72 172.13 169.7 172.17 153.29 162.69 153.29 162.64 169.72 172.13"/><polygon class="cls-108" points="169.7 172.17 169.68 172.21 153.29 162.75 153.29 162.69 169.7 172.17"/><polygon class="cls-109" points="169.68 172.21 169.66 172.25 153.29 162.8 153.29 162.75 169.68 172.21"/><polygon class="cls-110" points="169.66 172.25 169.63 172.28 153.29 162.85 153.29 162.8 169.66 172.25"/><polygon class="cls-111" points="169.63 172.28 169.61 172.32 153.29 162.9 153.29 162.85 169.63 172.28"/><polygon class="cls-111" points="169.61 172.32 169.59 172.36 153.29 162.96 153.29 162.9 169.61 172.32"/><polygon class="cls-112" points="169.59 172.36 169.57 172.4 153.29 163.01 153.29 162.96 169.59 172.36"/><polygon class="cls-113" points="169.57 172.4 169.54 172.44 153.29 163.06 153.29 163.01 169.57 172.4"/><polygon class="cls-114" points="169.54 172.44 169.52 172.48 153.29 163.11 153.29 163.06 169.54 172.44"/><polygon class="cls-115" points="169.52 172.48 169.5 172.52 153.29 163.16 153.29 163.11 169.52 172.48"/><polygon class="cls-116" points="169.5 172.52 169.48 172.56 153.29 163.22 153.29 163.16 169.5 172.52"/><polygon class="cls-117" points="169.48 172.56 169.45 172.6 153.29 163.27 153.29 163.22 169.48 172.56"/><polygon class="cls-117" points="169.45 172.6 169.43 172.64 153.29 163.32 153.29 163.27 169.45 172.6"/><polygon class="cls-118" points="169.43 172.64 169.41 172.68 153.29 163.37 153.29 163.32 169.43 172.64"/><polygon class="cls-119" points="169.41 172.68 169.38 172.72 153.29 163.43 153.29 163.37 169.41 172.68"/><polygon class="cls-120" points="169.38 172.72 169.36 172.76 153.29 163.48 153.29 163.43 169.38 172.72"/><polygon class="cls-121" points="169.36 172.76 169.34 172.8 153.29 163.53 153.29 163.48 169.36 172.76"/><polygon class="cls-122" points="169.34 172.8 169.32 172.83 153.29 163.58 153.29 163.53 169.34 172.8"/><polygon class="cls-123" points="169.32 172.83 169.29 172.87 153.29 163.64 153.29 163.58 169.32 172.83"/><polygon class="cls-124" points="169.29 172.87 169.27 172.91 153.29 163.69 153.29 163.64 169.29 172.87"/><polygon class="cls-125" points="169.27 172.91 169.25 172.95 153.29 163.74 153.29 163.69 169.27 172.91"/><polygon class="cls-126" points="169.25 172.95 169.23 172.99 153.29 163.79 153.29 163.74 169.25 172.95"/><polygon class="cls-127" points="169.23 172.99 169.2 173.03 153.29 163.84 153.29 163.79 169.23 172.99"/><polygon class="cls-127" points="169.2 173.03 169.18 173.07 153.29 163.9 153.29 163.84 169.2 173.03"/><polygon class="cls-128" points="169.18 173.07 169.16 173.11 153.29 163.95 153.29 163.9 169.18 173.07"/><polygon class="cls-129" points="169.16 173.11 169.14 173.15 153.29 164 153.29 163.95 169.16 173.11"/><polygon class="cls-130" points="169.14 173.15 169.11 173.19 153.29 164.06 153.29 164 169.14 173.15"/><polygon class="cls-131" points="169.11 173.19 169.09 173.23 153.29 164.11 153.29 164.06 169.11 173.19"/><polygon class="cls-132" points="169.09 173.23 169.07 173.27 153.29 164.16 153.29 164.11 169.09 173.23"/><polygon class="cls-133" points="169.07 173.27 169.04 173.31 153.29 164.21 153.29 164.16 169.07 173.27"/><polygon class="cls-134" points="169.04 173.31 169.02 173.34 153.29 164.26 153.29 164.21 169.04 173.31"/><polygon class="cls-135" points="169.02 173.34 169 173.38 153.29 164.32 153.29 164.26 169.02 173.34"/><polygon class="cls-136" points="169 173.38 168.99 173.41 168.95 173.41 153.29 164.37 153.29 164.32 169 173.38"/><polygon class="cls-137" points="168.86 173.41 153.29 164.42 153.29 164.37 168.95 173.41 168.86 173.41"/><polygon class="cls-138" points="168.77 173.41 153.29 164.47 153.29 164.42 168.86 173.41 168.77 173.41"/><polygon class="cls-139" points="168.68 173.41 153.29 164.53 153.29 164.47 168.77 173.41 168.68 173.41"/><polygon class="cls-140" points="168.59 173.41 153.29 164.58 153.29 164.53 168.68 173.41 168.59 173.41"/><polygon class="cls-141" points="168.5 173.41 153.29 164.63 153.29 164.58 168.59 173.41 168.5 173.41"/><polygon class="cls-142" points="168.4 173.41 153.29 164.68 153.29 164.63 168.5 173.41 168.4 173.41"/><polygon class="cls-143" points="168.31 173.41 153.29 164.74 153.29 164.68 168.4 173.41 168.31 173.41"/><polygon class="cls-144" points="168.22 173.41 153.29 164.79 153.29 164.74 168.31 173.41 168.22 173.41"/><polygon class="cls-144" points="168.13 173.41 153.29 164.84 153.29 164.79 168.22 173.41 168.13 173.41"/><polygon class="cls-145" points="168.04 173.41 153.29 164.89 153.29 164.84 168.13 173.41 168.04 173.41"/><polygon class="cls-146" points="167.95 173.41 153.29 164.94 153.29 164.89 168.04 173.41 167.95 173.41"/><polygon class="cls-147" points="167.86 173.41 153.29 165 153.29 164.94 167.95 173.41 167.86 173.41"/><polygon class="cls-147" points="167.77 173.41 153.29 165.05 153.29 165 167.86 173.41 167.77 173.41"/><polygon class="cls-148" points="167.68 173.41 153.29 165.1 153.29 165.05 167.77 173.41 167.68 173.41"/><polygon class="cls-149" points="167.59 173.41 153.29 165.15 153.29 165.1 167.68 173.41 167.59 173.41"/><polygon class="cls-150" points="167.5 173.41 153.29 165.21 153.29 165.15 167.59 173.41 167.5 173.41"/><polygon class="cls-151" points="167.41 173.41 153.29 165.26 153.29 165.21 167.5 173.41 167.41 173.41"/><polygon class="cls-152" points="167.32 173.41 153.29 165.31 153.29 165.26 167.41 173.41 167.32 173.41"/><polygon class="cls-153" points="167.23 173.41 153.29 165.36 153.29 165.31 167.32 173.41 167.23 173.41"/><polygon class="cls-154" points="167.13 173.41 153.29 165.42 153.29 165.36 167.23 173.41 167.13 173.41"/><polygon class="cls-154" points="167.04 173.41 153.29 165.47 153.29 165.42 167.13 173.41 167.04 173.41"/><polygon class="cls-155" points="166.95 173.41 153.29 165.52 153.29 165.47 167.04 173.41 166.95 173.41"/><polygon class="cls-156" points="166.86 173.41 153.29 165.57 153.29 165.52 166.95 173.41 166.86 173.41"/><polygon class="cls-157" points="166.77 173.41 153.29 165.63 153.29 165.57 166.86 173.41 166.77 173.41"/><polygon class="cls-158" points="166.68 173.41 153.29 165.68 153.29 165.63 166.77 173.41 166.68 173.41"/><polygon class="cls-159" points="166.59 173.41 153.29 165.73 153.29 165.68 166.68 173.41 166.59 173.41"/><polygon class="cls-160" points="166.5 173.41 153.29 165.78 153.29 165.73 166.59 173.41 166.5 173.41"/><polygon class="cls-161" points="166.41 173.41 153.29 165.84 153.29 165.78 166.5 173.41 166.41 173.41"/><polygon class="cls-162" points="166.32 173.41 153.29 165.89 153.29 165.84 166.41 173.41 166.32 173.41"/><polygon class="cls-163" points="166.23 173.41 153.29 165.94 153.29 165.89 166.32 173.41 166.23 173.41"/><polygon class="cls-164" points="166.14 173.41 153.29 165.99 153.29 165.94 166.23 173.41 166.14 173.41"/><polygon class="cls-164" points="166.05 173.41 153.29 166.04 153.29 165.99 166.14 173.41 166.05 173.41"/><polygon class="cls-165" points="165.96 173.41 153.29 166.1 153.29 166.04 166.05 173.41 165.96 173.41"/><polygon class="cls-166" points="165.87 173.41 153.29 166.15 153.29 166.1 165.96 173.41 165.87 173.41"/><polygon class="cls-167" points="165.77 173.41 153.29 166.2 153.29 166.15 165.87 173.41 165.77 173.41"/><polygon class="cls-168" points="165.68 173.41 153.29 166.25 153.29 166.2 165.77 173.41 165.68 173.41"/><polygon class="cls-169" points="165.59 173.41 153.29 166.31 153.29 166.25 165.68 173.41 165.59 173.41"/><polygon class="cls-170" points="165.5 173.41 153.29 166.36 153.29 166.31 165.59 173.41 165.5 173.41"/><polygon class="cls-171" points="165.41 173.41 153.29 166.41 153.29 166.36 165.5 173.41 165.41 173.41"/><polygon class="cls-172" points="165.32 173.41 153.29 166.46 153.29 166.41 165.41 173.41 165.32 173.41"/><polygon class="cls-173" points="165.23 173.41 153.29 166.51 153.29 166.46 165.32 173.41 165.23 173.41"/><polygon class="cls-173" points="165.14 173.41 153.29 166.57 153.29 166.51 165.23 173.41 165.14 173.41"/><polygon class="cls-174" points="165.05 173.41 153.29 166.62 153.29 166.57 165.14 173.41 165.05 173.41"/><polygon class="cls-175" points="164.96 173.41 153.29 166.67 153.29 166.62 165.05 173.41 164.96 173.41"/><polygon class="cls-175" points="164.87 173.41 153.29 166.72 153.29 166.67 164.96 173.41 164.87 173.41"/><polygon class="cls-176" points="164.78 173.41 153.29 166.78 153.29 166.72 164.87 173.41 164.78 173.41"/><polygon class="cls-177" points="164.69 173.41 153.29 166.83 153.29 166.78 164.78 173.41 164.69 173.41"/><polygon class="cls-178" points="164.6 173.41 153.29 166.88 153.29 166.83 164.69 173.41 164.6 173.41"/><polygon class="cls-178" points="164.5 173.41 153.29 166.93 153.29 166.88 164.6 173.41 164.5 173.41"/><polygon class="cls-179" points="164.41 173.41 153.29 166.99 153.29 166.93 164.5 173.41 164.41 173.41"/><polygon class="cls-180" points="164.32 173.41 153.29 167.04 153.29 166.99 164.41 173.41 164.32 173.41"/><polygon class="cls-180" points="164.23 173.41 153.29 167.09 153.29 167.04 164.32 173.41 164.23 173.41"/><polygon class="cls-181" points="164.14 173.41 153.29 167.14 153.29 167.09 164.23 173.41 164.14 173.41"/><polygon class="cls-182" points="164.05 173.41 153.29 167.2 153.29 167.14 164.14 173.41 164.05 173.41"/><polygon class="cls-182" points="163.96 173.41 153.29 167.25 153.29 167.2 164.05 173.41 163.96 173.41"/><polygon class="cls-183" points="163.87 173.41 153.29 167.3 153.29 167.25 163.96 173.41 163.87 173.41"/><polygon class="cls-184" points="163.78 173.41 153.29 167.35 153.29 167.3 163.87 173.41 163.78 173.41"/><polygon class="cls-184" points="163.69 173.41 153.29 167.41 153.29 167.35 163.78 173.41 163.69 173.41"/><polygon class="cls-185" points="163.6 173.41 153.29 167.46 153.29 167.41 163.69 173.41 163.6 173.41"/><polygon class="cls-186" points="163.51 173.41 153.29 167.51 153.29 167.46 163.6 173.41 163.51 173.41"/><polygon class="cls-187" points="163.42 173.41 153.29 167.56 153.29 167.51 163.51 173.41 163.42 173.41"/><polygon class="cls-188" points="163.33 173.41 153.29 167.62 153.29 167.56 163.42 173.41 163.33 173.41"/><polygon class="cls-189" points="163.24 173.41 153.29 167.67 153.29 167.62 163.33 173.41 163.24 173.41"/><polygon class="cls-190" points="163.15 173.41 153.29 167.72 153.29 167.67 163.24 173.41 163.15 173.41"/><polygon class="cls-191" points="163.06 173.41 153.29 167.77 153.29 167.72 163.15 173.41 163.06 173.41"/><polygon class="cls-192" points="162.96 173.41 153.29 167.82 153.29 167.77 163.06 173.41 162.96 173.41"/><polygon class="cls-192" points="153.29 167.82 162.96 173.41 153.29 173.41 153.29 167.82"/></g><path class="cls-193" d="M222,192.09c1.67,1.52,1.73,1.73,1.53,1.88s-.22.36-.33.56c-.21.38-.42.78-.62,1.17-.38.8-.76,1.6-1.06,2.43a17.29,17.29,0,0,0-.77,2.51,11.47,11.47,0,0,0-.25,1.3c0,.43-.09.87-.11,1.32v1l0,.44,0,.87c0,.29,0,.59-.06.88a10.11,10.11,0,0,1-.88,3.38l-.41.78c-.14.26-.34.48-.5.72a9,9,0,0,1-1.18,1.28l-.7.5-.35.25-.37.19-.76.39-.79.27a15.09,15.09,0,0,1-6.46.5,13.85,13.85,0,0,1-1.59-.25l-.8-.15c-.26-.06-.51-.14-.77-.21-.51-.15-1-.29-1.53-.45s-.92-.31-1.38-.43a12.19,12.19,0,0,0-5.25-.75,3.5,3.5,0,0,0-1.93.92,5.12,5.12,0,0,0-1.19,2.06,18.89,18.89,0,0,0-.72,5.63c0,.49,0,1,0,1.48a9.82,9.82,0,0,1-.08,1.7,5.34,5.34,0,0,1-4.59,4.82,9.42,9.42,0,0,1-3.27-.06,16.56,16.56,0,0,1-5.83-2.35,20.67,20.67,0,0,1-2.53-1.84,24,24,0,0,1-2.22-2.18c-.7-.77-1.3-1.65-1.92-2.37a6.14,6.14,0,0,0-2.19-1.71,2.92,2.92,0,0,0-2.47.07,6.83,6.83,0,0,0-2.09,1.8,36.47,36.47,0,0,0-3.23,5c-.25.44-.52.89-.83,1.35a6.15,6.15,0,0,1-.53.7,5.86,5.86,0,0,1-.68.64,7.45,7.45,0,0,1-3.21,1.44,8.83,8.83,0,0,1-3.51,0,9.75,9.75,0,0,1-3.2-1.44,13.53,13.53,0,0,1-4.28-5.14c-.47-.94-.94-2.08-1.27-2.77a5.55,5.55,0,0,0-1.48-1.83,5.9,5.9,0,0,0-4.6-.83,24.65,24.65,0,0,0-5.44,1.61l-2.79,1.15a20.44,20.44,0,0,1-3.19,1.08l-.53.09-.33,0h-.29c-.2,0-.36,0-.58,0-.43,0-.89.09-1.39.16a14,14,0,0,1-3.47.2,4.92,4.92,0,0,1-1-.2,3.81,3.81,0,0,1-1-.41l-.51-.28-.45-.36-.43-.39-.34-.44a7.69,7.69,0,0,1-1.4-3.56l-.13-.86-.06-.83,0-.83,0-.76a26.78,26.78,0,0,1,.07-3,20.5,20.5,0,0,0,.15-2.9,3.15,3.15,0,0,0-1.06-2.42,4.37,4.37,0,0,0-2.64-.76,13.91,13.91,0,0,0-2.93.32,44.28,44.28,0,0,0-5.78,1.72,20.39,20.39,0,0,1-6.34,1.22l-1.7-.11q-.86-.17-1.71-.36a14.41,14.41,0,0,1-1.65-.64,9.22,9.22,0,0,1-1.54-.92,10.48,10.48,0,0,1-2.53-2.53,12,12,0,0,1-.92-1.54c-.12-.28-.25-.54-.36-.83a2.28,2.28,0,0,1-.15-.44c0-.09.08-.2.36-.36l.18-.12a1.52,1.52,0,0,1,.21-.12c.22-.11.44-.21.67-.3l.31-.08c.24,0,.48-.06.72-.11a1.52,1.52,0,0,1,.24,0l.21,0c.32,0,.41,0,.48,0a2.21,2.21,0,0,1,.12.27c.06.19.16.38.24.57a11.79,11.79,0,0,0,.64,1.08,4.29,4.29,0,0,0,.37.5,2.62,2.62,0,0,0,.4.48l.42.45.47.41a9.12,9.12,0,0,0,4.7,2,16.32,16.32,0,0,0,2.81.11,20.77,20.77,0,0,0,2.89-.32c2-.39,4-.8,6.08-1a17.12,17.12,0,0,1,3.13-.13,5.81,5.81,0,0,1,3.1.95,6.56,6.56,0,0,1,2.11,2.64,15.05,15.05,0,0,1,1.13,3.1,16.69,16.69,0,0,1,.41,3.1c0,.25,0,.52,0,.76l.07.69.07.68.13.64a6.65,6.65,0,0,0,.33,1.19,4.12,4.12,0,0,0,.22.47,1.55,1.55,0,0,0,.12.22l.14.16a1.75,1.75,0,0,0,1.39.67,12.14,12.14,0,0,0,2.6-.2c.5-.07,1-.15,1.63-.19.29,0,.63,0,.94,0h.14l.22,0a17.17,17.17,0,0,0,2.57-.86c.93-.36,1.89-.73,2.87-1.09a28,28,0,0,1,6.27-1.65,11.7,11.7,0,0,1,3.53.1,7.62,7.62,0,0,1,3.43,1.6,8.54,8.54,0,0,1,2.24,2.92c.5,1.17.78,1.92,1.17,2.82A11.44,11.44,0,0,0,152,226a7.22,7.22,0,0,0,2.26,1.19,6.53,6.53,0,0,0,2.53.21,5.32,5.32,0,0,0,2.36-.85,3.54,3.54,0,0,0,.89-.85c.29-.37.57-.77.85-1.18a38.13,38.13,0,0,1,3.7-5,8.06,8.06,0,0,1,2.64-2,4.14,4.14,0,0,1,1.71-.37,3.94,3.94,0,0,1,1.71.39,7.65,7.65,0,0,1,2.53,2.05c.69.83,1.22,1.65,1.88,2.39a18.93,18.93,0,0,0,4.54,3.78,14.57,14.57,0,0,0,5.48,2,8.06,8.06,0,0,0,2.78-.11,3.9,3.9,0,0,0,2.14-1.28,4,4,0,0,0,.82-2.29,10.26,10.26,0,0,0,0-1.34c-.06-.52-.1-1-.14-1.56a20,20,0,0,1,.39-6.45,7.63,7.63,0,0,1,1.71-3.23,6,6,0,0,1,3.38-1.82,10.22,10.22,0,0,1,3.53,0,16.4,16.4,0,0,1,3.17.83c.51.19,1,.4,1.48.61s.89.38,1.34.57a13,13,0,0,0,1.35.52,10.93,10.93,0,0,0,1.37.44,9.54,9.54,0,0,0,5.57.09l.64-.23.59-.33.29-.17.26-.22.51-.42a5.52,5.52,0,0,0,1.26-2.25,2.78,2.78,0,0,0,.12-.64,3.48,3.48,0,0,0,.07-.64,6.27,6.27,0,0,0-.09-1.3c0-.22,0-.43-.11-.65l-.18-.63-.21-.72-.22-.84a15.17,15.17,0,0,1,.05-6.9,16.41,16.41,0,0,1,1.15-3.24,13,13,0,0,1,.81-1.52c.14-.25.3-.49.46-.74s.42-.49,2.39.63Z"/><path class="cls-194" d="M101.91,190a10.1,10.1,0,0,1,.39.94c.1.28.21.56.3.84.18.57.34,1.13.47,1.69a24.31,24.31,0,0,1,.61,3.35,18.46,18.46,0,0,1,.07,3.32,14.33,14.33,0,0,1-.17,1.62c0,.27-.11.53-.16.79l-.08.39,0,.2c0,.06.15.15.29.23s.18.16.17.23l0,.2,0,.41,0,.4,0,.34-.07.69c0,.22,0,.45,0,.67a6.9,6.9,0,0,0,.52,2.54,6,6,0,0,0,1.43,2l.49.36.25.18.28.13.56.28.6.19A10.85,10.85,0,0,0,113,212a11.42,11.42,0,0,0,1.37-.34,9.25,9.25,0,0,0,1.36-.41l1.37-.49c.49-.18,1-.38,1.5-.54a16.64,16.64,0,0,1,3.18-.8,8.25,8.25,0,0,1,3.46.38,8.6,8.6,0,0,1,1.66.7,6.14,6.14,0,0,1,1.46,1.08,6.22,6.22,0,0,1,1,1.43,8.93,8.93,0,0,1,.67,1.57,21.9,21.9,0,0,1,.86,6.36c0,.52,0,1,0,1.56a8.73,8.73,0,0,0,.07,1.29,3.44,3.44,0,0,0,.86,2,3.5,3.5,0,0,0,1.86,1,8.51,8.51,0,0,0,2.55.14,15.12,15.12,0,0,0,5.46-1.52,15.82,15.82,0,0,0,2.5-1.56,14.8,14.8,0,0,0,2.15-2c1.26-1.44,2-3.62,4.24-4.84a4.2,4.2,0,0,1,1.88-.5,4.72,4.72,0,0,1,1.93.39,8.83,8.83,0,0,1,2.81,2.11,37.44,37.44,0,0,1,3.7,5.09c.28.41.55.81.82,1.17a4.91,4.91,0,0,0,.38.45,4.69,4.69,0,0,0,.4.33,5.17,5.17,0,0,0,2.17.82,6.06,6.06,0,0,0,2.4-.12,7.12,7.12,0,0,0,2.21-1.09,10.9,10.9,0,0,0,3.32-4.14c.41-.87.71-1.63,1.29-2.75a7.55,7.55,0,0,1,2.45-2.58,7.69,7.69,0,0,1,3.28-1.12,14.12,14.12,0,0,1,3.25,0,32.87,32.87,0,0,1,6.07,1.51l2.9,1a17.64,17.64,0,0,0,2.74.74l.27,0h.23c.29,0,.6,0,.88,0,.57,0,1.1.07,1.61.11a12.41,12.41,0,0,0,2.69.06,2,2,0,0,0,1.48-.88l.13-.18c0-.07.06-.17.1-.24a4.73,4.73,0,0,0,.2-.5,10.29,10.29,0,0,0,.26-1.21c0-.21.07-.43.11-.64l.06-.69.06-.69.07-.75a21.14,21.14,0,0,1,.42-3.1,14.79,14.79,0,0,1,1-3.15,6,6,0,0,1,2.17-2.73,6.68,6.68,0,0,1,3.2-.88,16.37,16.37,0,0,1,3.14.17c2,.27,4.07.75,6,1.18a17,17,0,0,0,5.75.37,8.23,8.23,0,0,0,4.78-2.16l.45-.44.4-.5a3.71,3.71,0,0,0,.36-.52c.1-.18.22-.35.31-.55a8.1,8.1,0,0,0,.48-1.14c.05-.2.12-.4.15-.59a2.74,2.74,0,0,0,0-.28c0-.07,0-.2,0-.19l4.31,1.06a9.68,9.68,0,0,1-.43,1c-.14.28-.31.54-.47.81a14.07,14.07,0,0,1-1.06,1.47,7.69,7.69,0,0,1-.61.66,6.45,6.45,0,0,1-.65.63l-.68.58-.74.5a13.68,13.68,0,0,1-1.55.84c-.53.24-1.09.4-1.63.59l-1.67.33-1.67.11a18,18,0,0,1-3.22-.31,24.12,24.12,0,0,1-3.07-.75c-1-.29-1.92-.61-2.9-.88s-1.94-.5-2.91-.69a15.36,15.36,0,0,0-2.93-.27,3.85,3.85,0,0,0-2.55.82,3.48,3.48,0,0,0-1,2.33,22.54,22.54,0,0,0,0,2.85c.06,1,.09,2,.09,3,0,.25,0,.49,0,.76l-.05.83c0,.28,0,.55-.06.83l-.15.86a8,8,0,0,1-1.52,3.48l-.34.41-.44.36-.44.34-.5.25a4.11,4.11,0,0,1-1,.35,4.4,4.4,0,0,1-1,.15,12.81,12.81,0,0,1-3.37-.34c-.5-.1-1-.18-1.42-.25-.23,0-.42,0-.63-.07l-.54-.05-.48-.1a18.81,18.81,0,0,1-3-1.2c-.93-.43-1.84-.87-2.76-1.27a21.5,21.5,0,0,0-5.64-1.74,7.22,7.22,0,0,0-2.82.07,4.48,4.48,0,0,0-2.22,1.35,7.34,7.34,0,0,0-1.26,2.17,26.58,26.58,0,0,1-1.14,2.83,13.81,13.81,0,0,1-4.19,5.29l-.74.5c-.25.16-.54.28-.81.42a11.13,11.13,0,0,1-1.7.62,9.11,9.11,0,0,1-3.64.12,7.6,7.6,0,0,1-3.4-1.46,6,6,0,0,1-.75-.68,7.77,7.77,0,0,1-.57-.73c-.33-.47-.6-.92-.87-1.36a38,38,0,0,0-3.21-4.92,6.42,6.42,0,0,0-1.93-1.66,2.59,2.59,0,0,0-2.08-.15,5.65,5.65,0,0,0-2.23,1.42c-.36.34-.65.69-1,1.09s-.69.78-1,1.17a30.46,30.46,0,0,1-4.64,4.2,15.81,15.81,0,0,1-5.84,2.79,9,9,0,0,1-3.51.09,6.2,6.2,0,0,1-3.39-1.86,6,6,0,0,1-1.44-3.57,11.32,11.32,0,0,1,0-1.76q.09-.74.15-1.47a17.84,17.84,0,0,0-.25-5.72,5.07,5.07,0,0,0-1.18-2.28,2.87,2.87,0,0,0-2.2-1,12.63,12.63,0,0,0-2.6.44,19.71,19.71,0,0,0-2.71.71c-3.59,1.36-8.18,3.06-12.72,1.51l-.83-.32-.79-.44-.39-.23-.36-.27-.7-.58a8,8,0,0,1-1.92-3,9,9,0,0,1-.48-3.43c0-.28,0-.56.06-.84l.14-.83.14-.75.07-.35,0-.17c0-.06,0-.12.23-.15s.36-.08.33-.15l0-.18,0-.37c0-.25-.05-.49-.1-.73a13.35,13.35,0,0,0-.34-1.42,13.09,13.09,0,0,0-1.12-2.64,13.77,13.77,0,0,0-1.6-2.31c-.3-.35-.62-.69-.95-1-.16-.16-.33-.3-.5-.45a2,2,0,0,0-.47-.32Z"/><path class="cls-4" d="M107.71,239.12l-6.34,8.32-2.91-2.22a4.86,4.86,0,0,1-1.86-2.33,2.52,2.52,0,0,1,.52-2.3,2.4,2.4,0,0,1,1.13-.83,2.3,2.3,0,0,1,1.4,0,2.18,2.18,0,0,1-.52-1.41,2.39,2.39,0,0,1,.54-1.47,2.74,2.74,0,0,1,2.15-1.23,4.3,4.3,0,0,1,2.66,1Zm-5.4,3.53-1.26-1c-.88-.64-1.58-.63-2.09,0a1.2,1.2,0,0,0-.29,1.06,2.13,2.13,0,0,0,.85,1l1.19.92Zm.93-1.21,1.71-2.25-1.47-1.11a1.77,1.77,0,0,0-1.17-.44,1.24,1.24,0,0,0-.94.54,1.31,1.31,0,0,0,.3,2.06Z"/><path class="cls-4" d="M95.75,232.1l2.8,2.53,2-1.12,1.7,1.53-9.9,5.16-1.48-1.34L95,228.48l1.7,1.53Zm1.2,3.43L95,233.78l-1.65,3.79Z"/><path class="cls-4" d="M89.67,222.71l1.46,1.58L89,232l5-4.68,1.47,1.57-7.66,7.13-1.47-1.58,2.19-7.77-5,4.69L82,229.83Z"/><path class="cls-4" d="M83.41,216.83a3.76,3.76,0,0,1,1.87.63A7,7,0,0,1,87,219.09a4.72,4.72,0,0,1,1,2.24,3.88,3.88,0,0,1-.39,2.3,5.89,5.89,0,0,1-1.74,2.08l-.56.44a6.42,6.42,0,0,1-2.46,1.24,4,4,0,0,1-2.32-.12,5,5,0,0,1-3-4.31,3.85,3.85,0,0,1,1.28-2.57l1.29,1.66a2.06,2.06,0,0,0-.65,1.31,2,2,0,0,0,.5,1.32,1.93,1.93,0,0,0,1.68.82,4.41,4.41,0,0,0,2.3-1.05l.52-.41a4.18,4.18,0,0,0,1.58-2,2.14,2.14,0,0,0-.46-2A2.4,2.4,0,0,0,84.12,219l-1.42,1.11,1.2,1.54-1.25,1-2.53-3.25Z"/><path class="cls-4" d="M79.39,212.16l2.06,3.17,2.2-.57,1.24,1.92L74,219.1l-1.08-1.67,6.64-9,1.25,1.92Zm.28,3.63-1.42-2.19-2.57,3.23Z"/><path class="cls-4" d="M80,209,70.74,214,69,210.74a4.78,4.78,0,0,1-.72-2.89A2.49,2.49,0,0,1,69.71,206a2.36,2.36,0,0,1,1.38-.29,2.21,2.21,0,0,1,1.27.56,2.25,2.25,0,0,1,.12-1.5,2.32,2.32,0,0,1,1.1-1.11A2.73,2.73,0,0,1,76,203.4a4.35,4.35,0,0,1,2,2Zm-6.38,1-.75-1.4c-.53-.95-1.17-1.23-1.92-.82a1.19,1.19,0,0,0-.7.84,2.13,2.13,0,0,0,.34,1.3l.71,1.33Zm1.35-.72L77.41,208l-.87-1.63a1.76,1.76,0,0,0-.88-.87,1.25,1.25,0,0,0-1.09.09,1.32,1.32,0,0,0-.58,2Z"/><path class="cls-4" d="M72,197.66l1.5,3.46,2.26-.19.91,2.1-11.14.58-.79-1.83,8-7.75.91,2.11Zm-.33,3.62-1-2.4-3.07,2.77Z"/><path class="cls-4" d="M70.35,186.6l.68,2-5.21,6.14,6.53-2.16.68,2L63.1,198l-.67-2,5.22-6.16-6.55,2.17-.67-2Z"/><path class="cls-4" d="M70.32,186.39l-10.18,2.42-.74-3.13a5,5,0,0,1,0-2.54,4.36,4.36,0,0,1,1.33-2.06,5.46,5.46,0,0,1,2.39-1.2l.47-.11a5.57,5.57,0,0,1,2.66,0,4.32,4.32,0,0,1,2.1,1.24,5,5,0,0,1,1.19,2.25Zm-9-.08,6.79-1.61-.24-1A2.32,2.32,0,0,0,66.64,182a3.67,3.67,0,0,0-2.45-.12l-.54.13a3.75,3.75,0,0,0-2.2,1.2,2.32,2.32,0,0,0-.35,2.07Z"/><path class="cls-4" d="M67.24,170.31l.32,2.13-4.44.66.62,4.15,4.43-.65.31,2.13-10.34,1.52-.31-2.13L62,177.5l-.61-4.15-4.2.62-.31-2.13Z"/><path class="cls-4" d="M56.33,162.81l6.87-.41a3.55,3.55,0,0,1,2.78.91,4.82,4.82,0,0,1,.37,5.83,3.46,3.46,0,0,1-2.59,1.26l-6.95.41-.13-2.15,6.89-.41a2,2,0,0,0,1.46-.58,1.89,1.89,0,0,0,.39-1.39c-.07-1.21-.74-1.78-2-1.73l-6.94.42Z"/><path class="cls-4" d="M64.57,150.35a1.12,1.12,0,0,0-1,.36,5.4,5.4,0,0,0-.81,1.49,10.57,10.57,0,0,1-.86,1.7,2.88,2.88,0,0,1-2.73,1.57,2.6,2.6,0,0,1-1.47-.6,3.21,3.21,0,0,1-.92-1.45,5,5,0,0,1-.2-2,4.78,4.78,0,0,1,.56-2,3.18,3.18,0,0,1,1.26-1.26,2.91,2.91,0,0,1,1.71-.35L60,150a1.41,1.41,0,0,0-1.15.36,1.88,1.88,0,0,0-.5,1.23,2,2,0,0,0,.24,1.25,1,1,0,0,0,.84.51,1,1,0,0,0,.89-.44,5.92,5.92,0,0,0,.77-1.45,6.47,6.47,0,0,1,1.58-2.56,2.73,2.73,0,0,1,2.1-.67,2.48,2.48,0,0,1,2,1.2,4.48,4.48,0,0,1,.55,2.81,5.55,5.55,0,0,1-.62,2.16,3.56,3.56,0,0,1-1.33,1.41,3.18,3.18,0,0,1-1.82.37l.18-2.16q1.73.15,1.89-1.92a2.07,2.07,0,0,0-.21-1.22A1,1,0,0,0,64.57,150.35Z"/><path class="cls-4" d="M68.93,139.84,68.57,142l-4.42-.75-.71,4.14,4.42.75-.37,2.13-10.3-1.77.36-2.12,4.18.71.71-4.14-4.18-.71.37-2.13Z"/><path class="cls-4" d="M66.31,132l-1,4,2.71.7,1.23-4.7,1.67.44-1.76,6.78L59,136.57l1.76-6.77,1.69.44-1.22,4.68,2.41.63,1-4Z"/><path class="cls-4" d="M71.67,130.16,71,132.22l-10-3.17L61.7,127Z"/><path class="cls-4" d="M69.13,124.81l.72,1.48,2.79,1.07-.78,2-9.75-3.75.77-2,4.42,1.7L66.43,124l-2.25-3.73.95-2.47,3,5.13,6.79-1.48-.92,2.4Z"/><path class="cls-4" d="M78.52,114.19l-1,1.93-4-2-1.85,3.76,4,2-1,1.94-9.38-4.62,1-1.93,3.8,1.87L72,113.38l-3.8-1.87,1-1.93Z"/><path class="cls-4" d="M74.19,101.3l7.75,2.17-4.67-6.55,1.63-2.31,8.55,6-1.24,1.77-2.34-1.65-3.91-3,4.75,6.79-.85,1.21-8-2.18L80,106.22l2.34,1.64-1.24,1.76-8.55-6Z"/><path class="cls-4" d="M85.18,87.4l5.19,4.52a3.5,3.5,0,0,1,1.34,2.59,4.11,4.11,0,0,1-1.17,2.87,4.2,4.2,0,0,1-2.64,1.56A3.49,3.49,0,0,1,85.17,98l-5.25-4.58,1.41-1.62,5.2,4.53A2,2,0,0,0,88,97a1.86,1.86,0,0,0,1.24-.72A1.67,1.67,0,0,0,89,93.6L83.76,89Z"/><path class="cls-4" d="M89.14,83.49,90.68,82l5.06,5.17a3.44,3.44,0,0,1,.92,1.57,2.94,2.94,0,0,1-.06,1.71,3.88,3.88,0,0,1-1,1.57,3.72,3.72,0,0,1-2.44,1.21,3.09,3.09,0,0,1-2.33-1.06l1.55-1.52a1.71,1.71,0,0,0,1,.59,1.3,1.3,0,0,0,1-.46,1.24,1.24,0,0,0,.41-1,1.84,1.84,0,0,0-.59-1.12Z"/><path class="cls-4" d="M100.23,87.53,98.61,89,91.7,81.11l1.62-1.42Z"/><path class="cls-4" d="M100.78,87l-6.44-8.23,2.88-2.26A4.9,4.9,0,0,1,100,75.27,2.5,2.5,0,0,1,102,76.35a2.37,2.37,0,0,1,.52,1.31,2.27,2.27,0,0,1-.34,1.35,2.25,2.25,0,0,1,1.5-.14,2.43,2.43,0,0,1,1.29.89,2.78,2.78,0,0,1,.65,2.39A4.33,4.33,0,0,1,104,84.46Zm-2-6.11,1.25-1c.85-.69,1-1.37.48-2a1.17,1.17,0,0,0-1-.55,2.15,2.15,0,0,0-1.22.55l-1.19.93Zm.93,1.2,1.74,2.22,1.46-1.14a1.78,1.78,0,0,0,.71-1,1.27,1.27,0,0,0-.28-1.05,1.32,1.32,0,0,0-2.07-.23Z"/><path class="cls-4" d="M108.09,68.9l3.77,5.77a3.53,3.53,0,0,1,.58,2.86A4.11,4.11,0,0,1,110.53,80a4.16,4.16,0,0,1-3,.78,3.46,3.46,0,0,1-2.38-1.63l-3.81-5.83,1.81-1.18L107,77.89a2,2,0,0,0,1.23,1,1.9,1.9,0,0,0,1.4-.35,1.68,1.68,0,0,0,.5-2.61l-3.81-5.83Z"/><path class="cls-4" d="M115.85,72.21l-1.51.81,1.8,3.37-1.89,1-5-9.21,3.43-1.84a4.37,4.37,0,0,1,2.9-.62,2.81,2.81,0,0,1,2,1.58,2.9,2.9,0,0,1-.26,3.45l4,2.7,0,.09-2,1.09Zm-2.34-.73,1.53-.82a1.78,1.78,0,0,0,.91-1,1.46,1.46,0,0,0-.14-1.21,1.6,1.6,0,0,0-.92-.83,1.76,1.76,0,0,0-1.34.24l-1.52.82Z"/><path class="cls-4" d="M127.38,67l-1.61.61,1.37,3.58-2,.77-3.74-9.77L125,60.76a4.32,4.32,0,0,1,3-.25,2.84,2.84,0,0,1,1.77,1.82,3.22,3.22,0,0,1,.2,1.83,3.1,3.1,0,0,1-.9,1.56l3.64,3.19,0,.09-2.16.83Zm-2.23-1,1.62-.62a1.77,1.77,0,0,0,1-.83,1.48,1.48,0,0,0,0-1.22,1.6,1.6,0,0,0-.81-.94,1.74,1.74,0,0,0-1.35.07L124,63Z"/><path class="cls-4" d="M137.36,65.45l-3.63,1.06-.09,2.26-2.2.64.83-11.12,1.92-.56,6.67,9-2.2.64Zm-3.55-.78,2.51-.73L134,60.55Z"/><path class="cls-4" d="M148.51,65.25l-2.12.41-.86-4.4-4.12.81.86,4.4-2.11.41-2-10.26,2.11-.41.82,4.16,4.12-.81-.82-4.16L146.5,55Z"/><path class="cls-4" d="M150.49,54.5l3.36,7.3,2-7.79,2.82-.26,1,10.42-2.16.19-.25-2.84-.24-4.94-2.1,8-1.47.13-3.51-7.49.66,4.88.26,2.85-2.15.19-.95-10.41Z"/><path class="cls-4" d="M165.79,62.15,162,62.08l-.76,2.15-2.29,0L163,53.8l2,0,3.74,10.52-2.29,0Zm-3.16-1.8,2.61,0L164,56.46Z"/><path class="cls-4" d="M176.5,65.12l-2.15-.21-3.51-7.25-.66,6.85L168,64.3l1-10.4,2.14.2,3.52,7.27.66-6.86,2.14.2Z"/><path class="cls-4" d="M185.14,64a1.09,1.09,0,0,0-.23-1,5.55,5.55,0,0,0-1.37-1A11.13,11.13,0,0,1,182,61,2.9,2.9,0,0,1,180.74,58a2.46,2.46,0,0,1,.78-1.38,3.07,3.07,0,0,1,1.55-.73,5,5,0,0,1,2,0,4.68,4.68,0,0,1,1.87.8,3.22,3.22,0,0,1,1.1,1.4,3,3,0,0,1,.13,1.75l-2.11-.45a1.4,1.4,0,0,0-.21-1.18,1.86,1.86,0,0,0-1.17-.65,2,2,0,0,0-1.27.07,1.08,1.08,0,0,0-.61.77,1,1,0,0,0,.33.94,5.93,5.93,0,0,0,1.35,1,6.56,6.56,0,0,1,2.34,1.89,2.74,2.74,0,0,1,.4,2.17,2.54,2.54,0,0,1-1.44,1.87,4.52,4.52,0,0,1-2.87.19,5.55,5.55,0,0,1-2.06-.88,3.63,3.63,0,0,1-1.23-1.5,3.12,3.12,0,0,1-.14-1.85l2.11.45c-.23,1.12.32,1.83,1.67,2.11a2,2,0,0,0,1.24-.06A1,1,0,0,0,185.14,64Z"/><path class="cls-4" d="M195.84,66.24a3.72,3.72,0,0,1-2,2.19,4.37,4.37,0,0,1-3.12.07,3.94,3.94,0,0,1-2.64-2.2,5.61,5.61,0,0,1,0-3.89l.19-.62a6.27,6.27,0,0,1,1.27-2.39,4,4,0,0,1,2-1.25,4.31,4.31,0,0,1,2.38.08A4.24,4.24,0,0,1,196.4,60a4,4,0,0,1,.44,3l-2.06-.62a2.22,2.22,0,0,0-.12-1.57,2.1,2.1,0,0,0-1.28-.86,1.83,1.83,0,0,0-1.77.27,4.38,4.38,0,0,0-1.22,2.14l-.22.75a4.68,4.68,0,0,0-.23,2.52,1.8,1.8,0,0,0,1.33,1.22,2.12,2.12,0,0,0,1.56,0,2,2,0,0,0,.94-1.19Z"/><path class="cls-4" d="M197.25,70.57l-2-.75L198.86,60l2,.75Z"/><path class="cls-4" d="M205.69,69.19l-3.8-1.64-1.11,2.57L205.23,72l-.68,1.59-6.44-2.78,4.15-9.6L208.68,64l-.69,1.6-4.44-1.92-1,2.29,3.8,1.64Z"/><path class="cls-4" d="M212.13,77.69l-1.89-1-.44-8-3.26,6.06-1.89-1,4.95-9.21,1.9,1,.43,8.06,3.27-6.07,1.89,1Z"/><path class="cls-4" d="M221.48,79.68a3.65,3.65,0,0,1-2.5,1.53,4.35,4.35,0,0,1-3-.83,4,4,0,0,1-1.89-2.87,5.59,5.59,0,0,1,1.1-3.74l.35-.53a6.14,6.14,0,0,1,1.91-1.92,4,4,0,0,1,2.24-.63,4.74,4.74,0,0,1,4.15,3.17,4,4,0,0,1-.44,3l-1.8-1.19a2.2,2.2,0,0,0,.34-1.54,2,2,0,0,0-1-1.19,1.82,1.82,0,0,0-1.77-.25,4.38,4.38,0,0,0-1.78,1.69L217,75a4.56,4.56,0,0,0-.94,2.35,1.8,1.8,0,0,0,.91,1.55,2.2,2.2,0,0,0,1.5.44,2,2,0,0,0,1.25-.87Z"/><path class="cls-4" d="M227.5,83.11l-3.25-2.56-1.73,2.2,3.81,3-1.06,1.36-5.51-4.33,6.46-8.22,5.49,4.33-1.07,1.37-3.81-3-1.54,2,3.25,2.55Z"/><path class="cls-4" d="M230.3,87.8a2.33,2.33,0,0,1,1.24-.65,5.54,5.54,0,0,1,2,.09,8,8,0,0,1,.32-1.34,2.8,2.8,0,0,1,2.59-1.84,2.78,2.78,0,0,1,2,.94,2.68,2.68,0,0,1,.85,1.85,2.25,2.25,0,0,1-.7,1.76,2.78,2.78,0,0,1-2.46.65l-1-.17L235,91.85a4,4,0,0,0,1.61-1l1.24,1.26a5.45,5.45,0,0,1-3,1.65l-.19,2.39-1.66-1.68.06-.81a4.77,4.77,0,0,1-2.41-1.36A3.68,3.68,0,0,1,229.43,90,2.71,2.71,0,0,1,230.3,87.8Zm1.56,3.41a2.6,2.6,0,0,0,1.29.71l.24-3.14-.18,0a1.61,1.61,0,0,0-1.36.45,1.34,1.34,0,0,0-.45,1A1.48,1.48,0,0,0,231.86,91.21Zm4-5a2.43,2.43,0,0,0-.52,1.41l.64.13a1.87,1.87,0,0,0,.79.05,1.19,1.19,0,0,0,.56-.32.85.85,0,0,0,.25-.63.87.87,0,0,0-.29-.67.94.94,0,0,0-.7-.31A1.08,1.08,0,0,0,235.84,86.2Z"/><path class="cls-4" d="M250.67,102.84l-1.86-2.6-7.08,5.07-1.26-1.75,7.08-5.07-1.84-2.57,1.42-1,5,6.93Z"/><path class="cls-4" d="M250.47,110.58l-2.16-3.53-2.39,1.46,2.53,4.14-1.47.9-3.66-6,8.92-5.45,3.65,6-1.49.91-2.53-4.13-2.12,1.3,2.16,3.53Z"/><path class="cls-4" d="M253.62,118.92a3.7,3.7,0,0,1-2.93.1,4.36,4.36,0,0,1-2.22-2.19,3.93,3.93,0,0,1-.23-3.44,5.57,5.57,0,0,1,2.78-2.72l.57-.29a6.32,6.32,0,0,1,2.61-.73,3.94,3.94,0,0,1,2.26.55,4.21,4.21,0,0,1,1.59,1.76,4.29,4.29,0,0,1,.47,3,4,4,0,0,1-1.84,2.38l-1-1.92a2.13,2.13,0,0,0,1.05-1.17,2.05,2.05,0,0,0-.26-1.52,1.82,1.82,0,0,0-1.42-1.08,4.42,4.42,0,0,0-2.39.6l-.7.36a4.66,4.66,0,0,0-2,1.59,1.77,1.77,0,0,0,0,1.79,2.09,2.09,0,0,0,1.09,1.12,2,2,0,0,0,1.51-.14Z"/><path class="cls-4" d="M253.6,128.13l-.81-2,4.15-1.69-1.58-3.89-4.15,1.68-.81-2,9.68-3.94.82,2L257,119.9l1.58,3.89,3.93-1.59.81,2Z"/><path class="cls-4" d="M256.13,136.42l-.62-2.06,5.36-6-6.59,2-.62-2.07,10-3,.63,2.06-5.37,6,6.59-2,.62,2.05Z"/><path class="cls-4" d="M262.81,144a6.43,6.43,0,0,1-2.76,0,4.14,4.14,0,0,1-2.08-1.17,4.62,4.62,0,0,1-1-4.55,4.19,4.19,0,0,1,1.42-1.91,6.15,6.15,0,0,1,2.5-1.1l.5-.1a6.21,6.21,0,0,1,2.78,0,4.06,4.06,0,0,1,2.08,1.17,4.25,4.25,0,0,1,1.09,2.15,4.32,4.32,0,0,1-.14,2.4,4.16,4.16,0,0,1-1.44,1.91,6.32,6.32,0,0,1-2.54,1.09Zm0-2.24a4.41,4.41,0,0,0,2.33-1.08,2.09,2.09,0,0,0-.68-3.29,4.39,4.39,0,0,0-2.54-.08l-.5.11a4.45,4.45,0,0,0-2.31,1.08,2.07,2.07,0,0,0,.65,3.3,4.45,4.45,0,0,0,2.55.07Z"/><path class="cls-4" d="M259.85,146.82l.58,4.53-1.71.22-.87-6.67,10.37-1.34.28,2.14Z"/><path class="cls-4" d="M264.12,159a6.58,6.58,0,0,1-2.73-.39,4.11,4.11,0,0,1-1.88-1.46,4.35,4.35,0,0,1-.77-2.29,4.3,4.3,0,0,1,.5-2.35,4,4,0,0,1,1.69-1.68,6.07,6.07,0,0,1,2.63-.72l.52,0a6.33,6.33,0,0,1,2.74.4,4.23,4.23,0,0,1,1.89,1.47,4.28,4.28,0,0,1,.76,2.28,4.34,4.34,0,0,1-.5,2.36,4.11,4.11,0,0,1-1.71,1.67,6.2,6.2,0,0,1-2.67.71Zm.35-2.21a4.3,4.3,0,0,0,2.46-.73,2.08,2.08,0,0,0-.18-3.35,4.3,4.3,0,0,0-2.5-.45l-.51,0a4.54,4.54,0,0,0-2.45.72,1.94,1.94,0,0,0-.78,1.75,1.87,1.87,0,0,0,.94,1.61,4.37,4.37,0,0,0,2.51.45Z"/><path class="cls-4" d="M260.2,167.44a3.79,3.79,0,0,1-1-1.68,6.85,6.85,0,0,1-.32-2.36,4.69,4.69,0,0,1,.67-2.37,3.94,3.94,0,0,1,1.76-1.53A6.18,6.18,0,0,1,264,159l.71,0a6.31,6.31,0,0,1,2.69.61,4,4,0,0,1,1.71,1.57,4.51,4.51,0,0,1,.54,2.35,4.39,4.39,0,0,1-1,2.88,3.83,3.83,0,0,1-2.62,1.17l.06-2.1a2.07,2.07,0,0,0,1.33-.6,2,2,0,0,0,.46-1.34,1.89,1.89,0,0,0-.78-1.69,4.36,4.36,0,0,0-2.44-.66l-.66,0a4.18,4.18,0,0,0-2.51.56,2.13,2.13,0,0,0-.89,1.8,2.4,2.4,0,0,0,.47,1.75l1.8.05.06-2,1.58,0-.12,4.11Z"/><path class="cls-4" d="M264.17,171.69l4.44,2.68-.26,2.34-6.25-4.14-3.77-.42.25-2.18,3.76.42,7-2.68-.26,2.35Z"/><path class="cls-4" d="M264.63,192.56,258,190.73a3.53,3.53,0,0,1-2.33-1.75,4.11,4.11,0,0,1-.19-3.1,4.23,4.23,0,0,1,1.71-2.54A3.49,3.49,0,0,1,260,183l6.71,1.85-.57,2.08-6.65-1.83a2,2,0,0,0-1.57.08,1.91,1.91,0,0,0-.82,1.18,1.68,1.68,0,0,0,1.35,2.29l6.71,1.84Z"/><path class="cls-4" d="M251.54,197.91l.75-2,7.91-1.53-6.44-2.4.75-2,9.79,3.65-.75,2-7.92,1.53,6.45,2.4-.75,2Z"/><path class="cls-4" d="M250.39,200.29l.88-2,9.55,4.24-.87,2Z"/><path class="cls-4" d="M250.8,205.39l5.91,5.69-1.1,2.14-7.63-8,1-2,11,1.55-1.09,2.13Z"/><path class="cls-4" d="M247.12,215.63l2.17-3.53-2.39-1.46-2.54,4.13-1.48-.9,3.67-6,8.91,5.48-3.66,6-1.49-.92,2.54-4.12-2.13-1.3-2.16,3.52Z"/><path class="cls-4" d="M243.88,219l1-1.39-3.1-2.25,1.27-1.74,8.47,6.13-2.28,3.15a4.42,4.42,0,0,1-2.35,1.83,2.86,2.86,0,0,1-2.48-.56,2.92,2.92,0,0,1-1.27-3.22l-4.79-.67-.08-.06,1.36-1.88Zm2.42-.37-1,1.41a1.76,1.76,0,0,0-.4,1.26,1.44,1.44,0,0,0,.66,1,1.56,1.56,0,0,0,1.18.34,1.73,1.73,0,0,0,1.1-.8l1-1.4Z"/><path class="cls-4" d="M237,225.83a1.08,1.08,0,0,0,1,.28,5.49,5.49,0,0,0,1.53-.73,10.94,10.94,0,0,1,1.7-.89,2.87,2.87,0,0,1,3.12.33,2.56,2.56,0,0,1,.85,1.34,3.2,3.2,0,0,1-.1,1.72,5.34,5.34,0,0,1-1,1.77,4.63,4.63,0,0,1-1.6,1.25,3.23,3.23,0,0,1-1.76.3,3.08,3.08,0,0,1-1.59-.72l1.39-1.64a1.45,1.45,0,0,0,1.15.38,1.92,1.92,0,0,0,1.13-.71,2,2,0,0,0,.54-1.15,1.06,1.06,0,0,0-.39-.91,1,1,0,0,0-1-.16,5.49,5.49,0,0,0-1.47.73,6.48,6.48,0,0,1-2.78,1.15,2.74,2.74,0,0,1-2.1-.68,2.53,2.53,0,0,1-1-2.16,4.56,4.56,0,0,1,1.21-2.61,5.49,5.49,0,0,1,1.76-1.39,3.47,3.47,0,0,1,1.9-.36,3.06,3.06,0,0,1,1.69.76l-1.4,1.64c-.88-.75-1.76-.6-2.66.45a2.07,2.07,0,0,0-.54,1.12A1,1,0,0,0,237,225.83Z"/><path class="cls-4" d="M231.94,227.28l1.48-1.56,7.59,7.19-1.48,1.56Z"/><path class="cls-4" d="M232.1,239.25l2.32-2.21-6-6.31,1.56-1.49,6,6.31,2.29-2.17,1.2,1.26-6.17,5.87Z"/><path class="cls-4" d="M227.07,239.5l1.28,5L226.52,246,225,238.68l-2.38-3,1.7-1.38,2.39,3,6.86,3-1.84,1.49Z"/><path class="cls-4" d="M133.78,247.06a3.71,3.71,0,0,1-1.62,1.07,6.8,6.8,0,0,1-2.32.37,4.56,4.56,0,0,1-2.34-.58,3.94,3.94,0,0,1-1.56-1.69,6,6,0,0,1-.56-2.61v-.7a6.42,6.42,0,0,1,.52-2.67,3.84,3.84,0,0,1,1.5-1.72,4.94,4.94,0,0,1,5.16.27,3.73,3.73,0,0,1,1.22,2.54h-2.06a2,2,0,0,0-.63-1.29,1.94,1.94,0,0,0-1.33-.41,1.89,1.89,0,0,0-1.65.81,4.22,4.22,0,0,0-.57,2.42v.66a4,4,0,0,0,.61,2.44,2.13,2.13,0,0,0,1.81.83,2.35,2.35,0,0,0,1.7-.51v-1.77h-1.93V243h4.05Z"/><path class="cls-4" d="M142.59,243.45a6.31,6.31,0,0,1-.53,2.66,4,4,0,0,1-1.54,1.77,4.22,4.22,0,0,1-2.3.62,4.28,4.28,0,0,1-2.28-.61,4,4,0,0,1-1.55-1.76,5.94,5.94,0,0,1-.56-2.62V243a6.11,6.11,0,0,1,.55-2.68,4.05,4.05,0,0,1,1.54-1.77,4.54,4.54,0,0,1,4.58,0,4.14,4.14,0,0,1,1.55,1.77,6.24,6.24,0,0,1,.54,2.67Zm-2.15-.47a4.3,4.3,0,0,0-.58-2.46,1.87,1.87,0,0,0-1.65-.84,1.91,1.91,0,0,0-1.65.83A4.31,4.31,0,0,0,136,243v.5a4.32,4.32,0,0,0,.58,2.44,1.87,1.87,0,0,0,1.66.87,1.85,1.85,0,0,0,1.64-.83,4.29,4.29,0,0,0,.58-2.45Z"/><path class="cls-4" d="M144.9,244.74v3.62h-2.13V238.07h4a4.71,4.71,0,0,1,2,.42,3.12,3.12,0,0,1,1.35,1.21,3.32,3.32,0,0,1,.48,1.78,3,3,0,0,1-1,2.38,4.32,4.32,0,0,1-2.87.88Zm0-1.72h1.89a1.82,1.82,0,0,0,1.28-.4,1.42,1.42,0,0,0,.45-1.13,1.6,1.6,0,0,0-1.68-1.7H144.9Z"/><path class="cls-4" d="M155.3,246.24h-3.71l-.71,2.12h-2.26l3.84-10.29h2l3.85,10.29H156Zm-3.14-1.72h2.57l-1.29-3.85Z"/><path class="cls-4" d="M160,246.66h4.5v1.7h-6.63V238.07H160Z"/><path class="cls-4" d="M172.05,247.06a3.83,3.83,0,0,1-1.62,1.07,6.84,6.84,0,0,1-2.32.37,4.63,4.63,0,0,1-2.35-.58,3.86,3.86,0,0,1-1.55-1.69,5.9,5.9,0,0,1-.56-2.61v-.7a6.27,6.27,0,0,1,.52-2.67,3.72,3.72,0,0,1,1.5-1.72,4.92,4.92,0,0,1,5.15.27,3.74,3.74,0,0,1,1.23,2.54H170a2,2,0,0,0-.62-1.29,2,2,0,0,0-1.34-.41,1.86,1.86,0,0,0-1.64.81,4.29,4.29,0,0,0-.58,2.42v.66a4,4,0,0,0,.62,2.44,2.11,2.11,0,0,0,1.8.83,2.36,2.36,0,0,0,1.71-.51v-1.77H168V243h4.05Z"/><path class="cls-4" d="M178.21,246.24H174.5l-.71,2.12h-2.26l3.83-10.29h2l3.85,10.29h-2.25Zm-3.14-1.72h2.57l-1.29-3.85Z"/><path class="cls-4" d="M189.15,248.36H187l-4.13-6.77v6.77h-2.12V238.07h2.12l4.14,6.79v-6.79h2.11Z"/><path class="cls-4" d="M193.8,238.07h2.12v7.12a3.41,3.41,0,0,1-.44,1.74,2.93,2.93,0,0,1-1.23,1.16,3.71,3.71,0,0,1-1.78.41,3.63,3.63,0,0,1-2.55-.83,3,3,0,0,1-.91-2.35h2.13a1.66,1.66,0,0,0,.32,1.12,1.28,1.28,0,0,0,1,.36,1.2,1.2,0,0,0,1-.42,1.76,1.76,0,0,0,.37-1.19Z"/><path class="cls-4" d="M121.33,262.73v-9.48h3.1a3.6,3.6,0,0,1,2.33.64,2.3,2.3,0,0,1,.77,1.88,1.93,1.93,0,0,1-.37,1.18,2.56,2.56,0,0,1-1,.79,2.2,2.2,0,0,1,1.21.82,2.32,2.32,0,0,1,.45,1.43,2.54,2.54,0,0,1-.83,2,3.4,3.4,0,0,1-2.34.73Zm1.26-5.44h1.88a2,2,0,0,0,1.32-.41,1.4,1.4,0,0,0,.49-1.11,1.35,1.35,0,0,0-.46-1.14,2.22,2.22,0,0,0-1.39-.36h-1.84Zm0,1v3.41h2.06a2,2,0,0,0,1.38-.46,1.59,1.59,0,0,0,.5-1.24q0-1.71-1.86-1.71Z"/><path class="cls-4" d="M134.41,260.25h-4l-.89,2.48h-1.29l3.62-9.48H133l3.62,9.48h-1.28Zm-3.6-1H134l-1.61-4.44Z"/><path class="cls-4" d="M144.69,262.73h-1.26l-4.77-7.31v7.31H137.4v-9.48h1.26l4.78,7.34v-7.34h1.25Z"/><path class="cls-4" d="M153.44,261.49a2.91,2.91,0,0,1-1.34,1,5.64,5.64,0,0,1-2,.34,3.93,3.93,0,0,1-2.06-.54,3.67,3.67,0,0,1-1.39-1.55,5.18,5.18,0,0,1-.5-2.32v-.83a5,5,0,0,1,1-3.32,3.49,3.49,0,0,1,2.81-1.18,3.57,3.57,0,0,1,2.39.76,3.24,3.24,0,0,1,1.11,2.15h-1.25a2.06,2.06,0,0,0-2.24-1.89,2.19,2.19,0,0,0-1.9.88,4.3,4.3,0,0,0-.66,2.56v.78a4.1,4.1,0,0,0,.73,2.54,2.39,2.39,0,0,0,2,.94,4.48,4.48,0,0,0,1.23-.16,1.9,1.9,0,0,0,.88-.52V259H150v-1h3.44Z"/><path class="cls-4" d="M156.31,261.71h4.5v1h-5.75v-9.48h1.25Z"/><path class="cls-4" d="M167.13,260.25h-4l-.89,2.48H161l3.62-9.48h1.1l3.62,9.48H168Zm-3.6-1h3.22l-1.61-4.44Z"/><path class="cls-4" d="M170.12,262.73v-9.48h2.68a4.29,4.29,0,0,1,2.19.55,3.65,3.65,0,0,1,1.46,1.55,5.08,5.08,0,0,1,.53,2.32v.6a5.07,5.07,0,0,1-.52,2.36,3.69,3.69,0,0,1-1.48,1.55,4.57,4.57,0,0,1-2.23.55Zm1.25-8.46v7.44h1.32a2.87,2.87,0,0,0,2.25-.9,3.76,3.76,0,0,0,.8-2.56v-.56a3.76,3.76,0,0,0-.76-2.51,2.68,2.68,0,0,0-2.15-.91Z"/><path class="cls-4" d="M183.76,258.35h-4.11v3.36h4.77v1h-6v-9.48h6v1h-4.71v3h4.11Z"/><path class="cls-4" d="M188.31,258.5a5.78,5.78,0,0,1-2.34-1.13,2.19,2.19,0,0,1-.74-1.67,2.3,2.3,0,0,1,.9-1.85,3.55,3.55,0,0,1,2.33-.73,3.77,3.77,0,0,1,1.74.38,2.79,2.79,0,0,1,1.18,1,2.64,2.64,0,0,1,.42,1.45h-1.25a1.75,1.75,0,0,0-.55-1.36,2.28,2.28,0,0,0-1.54-.49,2.31,2.31,0,0,0-1.45.41,1.37,1.37,0,0,0-.51,1.13,1.21,1.21,0,0,0,.49,1,4.9,4.9,0,0,0,1.67.74,7.63,7.63,0,0,1,1.85.73,2.88,2.88,0,0,1,1,.93,2.46,2.46,0,0,1,.32,1.26,2.23,2.23,0,0,1-.9,1.85,3.84,3.84,0,0,1-2.4.69,4.43,4.43,0,0,1-1.82-.38,3,3,0,0,1-1.31-1,2.55,2.55,0,0,1-.46-1.48h1.26a1.62,1.62,0,0,0,.64,1.36,2.66,2.66,0,0,0,1.69.5,2.46,2.46,0,0,0,1.52-.41,1.42,1.42,0,0,0,0-2.18A5.9,5.9,0,0,0,188.31,258.5Z"/><path class="cls-4" d="M200.24,262.73H199v-4.38h-4.78v4.38H193v-9.48h1.25v4.07H199v-4.07h1.25Z"/></svg>